<svg xmlns="http://www.w3.org/2000/svg" xmlns:xlink="http://www.w3.org/1999/xlink" width="198" zoomAndPan="magnify" viewBox="0 0 148.5 32.999998" height="44" preserveAspectRatio="xMidYMid meet" version="1.0"><defs><g/><clipPath id="b6739a3466"><path d="M 2.09375 3.34375 L 28.40625 3.34375 L 28.40625 29.65625 L 2.09375 29.65625 Z M 2.09375 3.34375 " clip-rule="nonzero"/></clipPath><clipPath id="5d3c3934a2"><path d="M 15.25 3.34375 C 7.984375 3.34375 2.09375 9.234375 2.09375 16.5 C 2.09375 23.765625 7.984375 29.65625 15.25 29.65625 C 22.515625 29.65625 28.40625 23.765625 28.40625 16.5 C 28.40625 9.234375 22.515625 3.34375 15.25 3.34375 Z M 15.25 3.34375 " clip-rule="nonzero"/></clipPath><clipPath id="2428e5ba68"><path d="M 0.09375 0.34375 L 26.40625 0.34375 L 26.40625 26.65625 L 0.09375 26.65625 Z M 0.09375 0.34375 " clip-rule="nonzero"/></clipPath><clipPath id="19733dcb80"><path d="M 13.25 0.34375 C 5.984375 0.34375 0.09375 6.234375 0.09375 13.5 C 0.09375 20.765625 5.984375 26.65625 13.25 26.65625 C 20.515625 26.65625 26.40625 20.765625 26.40625 13.5 C 26.40625 6.234375 20.515625 0.34375 13.25 0.34375 Z M 13.25 0.34375 " clip-rule="nonzero"/></clipPath><clipPath id="7be7033924"><rect x="0" width="27" y="0" height="27"/></clipPath><clipPath id="69e9912962"><rect x="0" width="74" y="0" height="25"/></clipPath><clipPath id="8d0b01dc55"><path d="M 10.0625 7.589844 L 20.527344 7.589844 L 20.527344 16 L 10.0625 16 Z M 10.0625 7.589844 " clip-rule="nonzero"/></clipPath><clipPath id="092f5f92b2"><path d="M 10.0625 14 L 20.527344 14 L 20.527344 23 L 10.0625 23 Z M 10.0625 14 " clip-rule="nonzero"/></clipPath><clipPath id="ab7b5ac42d"><path d="M 10.0625 21 L 15 21 L 15 25.527344 L 10.0625 25.527344 Z M 10.0625 21 " clip-rule="nonzero"/></clipPath></defs><g clip-path="url(#b6739a3466)"><g clip-path="url(#5d3c3934a2)"><g transform="matrix(1, 0, 0, 1, 2, 3)"><g clip-path="url(#7be7033924)"><g clip-path="url(#2428e5ba68)"><g clip-path="url(#19733dcb80)"><path fill="#000000" d="M 0.09375 0.34375 L 26.40625 0.34375 L 26.40625 26.65625 L 0.09375 26.65625 Z M 0.09375 0.34375 " fill-opacity="1" fill-rule="nonzero"/></g></g></g></g></g></g><g fill="#757576" fill-opacity="0.4"><g transform="translate(33.631813, 22.823851)"><g><path d="M 7.765625 -7.765625 L 7.765625 -5.828125 L 1.9375 -5.828125 L 1.9375 0 L 0 0 L 0 -13.59375 L 7.765625 -13.59375 L 7.765625 -11.65625 L 9.71875 -11.65625 L 9.71875 -7.765625 Z M 1.9375 -7.765625 L 7.75 -7.765625 L 7.75 -11.65625 L 1.9375 -11.65625 Z M 1.9375 -7.765625 "/></g></g></g><g fill="#757576" fill-opacity="0.4"><g transform="translate(48.582811, 22.823851)"><g><path d="M 1.9375 -1.9375 L 9.71875 -1.9375 L 9.71875 0 L 0 0 L 0 -13.59375 L 9.71875 -13.59375 L 9.71875 -11.65625 L 1.9375 -11.65625 L 1.9375 -7.765625 L 7.765625 -7.765625 L 7.765625 -5.828125 L 1.9375 -5.828125 Z M 1.9375 -1.9375 "/></g></g></g><g fill="#757576" fill-opacity="0.4"><g transform="translate(63.533809, 22.823851)"><g><path d="M 7.765625 -1.9375 L 7.765625 0 L 0 0 L 0 -13.59375 L 1.921875 -13.59375 L 1.921875 -1.9375 Z M 7.765625 -1.9375 "/></g></g></g><g fill="#000000" fill-opacity="1"><g transform="translate(32.773579, 21.965618)"><g><path d="M 7.765625 -7.765625 L 7.765625 -5.828125 L 1.9375 -5.828125 L 1.9375 0 L 0 0 L 0 -13.59375 L 7.765625 -13.59375 L 7.765625 -11.65625 L 9.71875 -11.65625 L 9.71875 -7.765625 Z M 1.9375 -7.765625 L 7.75 -7.765625 L 7.75 -11.65625 L 1.9375 -11.65625 Z M 1.9375 -7.765625 "/></g></g></g><g fill="#000000" fill-opacity="1"><g transform="translate(47.724577, 21.965618)"><g><path d="M 1.9375 -1.9375 L 9.71875 -1.9375 L 9.71875 0 L 0 0 L 0 -13.59375 L 9.71875 -13.59375 L 9.71875 -11.65625 L 1.9375 -11.65625 L 1.9375 -7.765625 L 7.765625 -7.765625 L 7.765625 -5.828125 L 1.9375 -5.828125 Z M 1.9375 -1.9375 "/></g></g></g><g fill="#000000" fill-opacity="1"><g transform="translate(62.675576, 21.965618)"><g><path d="M 7.765625 -1.9375 L 7.765625 0 L 0 0 L 0 -13.59375 L 1.921875 -13.59375 L 1.921875 -1.9375 Z M 7.765625 -1.9375 "/></g></g></g><g transform="matrix(1, 0, 0, 1, 73, 3)"><g clip-path="url(#69e9912962)"><g fill="#000000" fill-opacity="0.4"><g transform="translate(1.876792, 20.267098)"><g><path d="M 1.9375 -7.765625 L 7.765625 -7.765625 L 7.765625 -5.828125 L 9.71875 -5.828125 L 9.71875 -1.9375 L 7.765625 -1.9375 L 7.765625 -5.828125 L 1.9375 -5.828125 Z M 1.9375 -13.59375 L 7.765625 -13.59375 L 7.765625 -11.65625 L 9.71875 -11.65625 L 9.71875 -9.71875 L 7.765625 -9.71875 L 7.765625 -11.65625 L 1.9375 -11.65625 Z M 1.9375 -1.9375 L 7.765625 -1.9375 L 7.765625 0 L 1.9375 0 Z M 1.9375 -7.765625 L 0 -7.765625 L 0 -11.65625 L 1.9375 -11.65625 Z M 1.9375 -1.9375 L 0 -1.9375 L 0 -3.890625 L 1.9375 -3.890625 Z M 1.9375 -1.9375 "/></g></g><g transform="translate(15.47429, 20.267098)"><g><path d="M 0 -13.59375 L 9.71875 -13.59375 L 9.71875 -11.65625 L 5.828125 -11.65625 L 5.828125 0 L 3.890625 0 L 3.890625 -11.65625 L 0 -11.65625 Z M 0 -13.59375 "/></g></g><g transform="translate(29.071788, 20.267098)"><g><path d="M 3.890625 -13.59375 L 7.78125 -13.59375 L 7.78125 -9.71875 L 9.71875 -9.71875 L 9.71875 -3.890625 L 11.65625 -3.890625 L 11.65625 0 L 9.71875 0 L 9.71875 -3.890625 L 1.9375 -3.890625 L 1.9375 -9.71875 L 3.890625 -9.71875 Z M 7.78125 -5.828125 L 7.78125 -9.6875 L 3.890625 -9.6875 L 3.890625 -5.828125 Z M 0 0 L 0 -3.890625 L 1.9375 -3.890625 L 1.9375 0 Z M 0 0 "/></g></g><g transform="translate(44.603659, 20.267098)"><g><path d="M 11.65625 -11.65625 L 11.65625 -9.71875 L 9.71875 -9.71875 L 9.71875 -11.65625 L 3.890625 -11.65625 L 3.890625 -13.59375 L 9.71875 -13.59375 L 9.71875 -11.65625 Z M 3.890625 -3.875 L 3.890625 -1.9375 L 9.71875 -1.9375 L 9.71875 0 L 3.890625 0 L 3.890625 -1.9375 L 1.9375 -1.9375 L 1.9375 -3.875 Z M 1.9375 -9.71875 L 1.9375 -3.890625 L 0 -3.890625 L 0 -9.71875 Z M 9.71875 -1.9375 L 9.71875 -3.890625 L 11.65625 -3.890625 L 11.65625 -1.9375 Z M 3.890625 -9.734375 L 1.9375 -9.734375 L 1.9375 -11.65625 L 3.890625 -11.65625 Z M 3.890625 -9.734375 "/></g></g><g transform="translate(60.135529, 20.267098)"><g><path d="M 1.9375 0 L 0 0 L 0 -13.59375 L 1.9375 -13.59375 L 1.9375 -7.765625 L 3.890625 -7.765625 L 3.890625 -9.71875 L 5.828125 -9.71875 L 5.828125 -5.828125 L 7.765625 -5.828125 L 7.765625 -3.890625 L 9.71875 -3.890625 L 9.71875 0 L 7.765625 0 L 7.765625 -3.890625 L 5.828125 -3.890625 L 5.828125 -5.828125 L 1.9375 -5.828125 Z M 7.765625 -11.65625 L 7.765625 -13.59375 L 9.71875 -13.59375 L 9.71875 -11.65625 Z M 5.828125 -11.65625 L 7.765625 -11.65625 L 7.765625 -9.71875 L 5.828125 -9.71875 Z M 5.828125 -11.65625 "/></g></g></g><g fill="#757576" fill-opacity="1"><g transform="translate(1.018559, 19.408866)"><g><path d="M 1.9375 -7.765625 L 7.765625 -7.765625 L 7.765625 -5.828125 L 9.71875 -5.828125 L 9.71875 -1.9375 L 7.765625 -1.9375 L 7.765625 -5.828125 L 1.9375 -5.828125 Z M 1.9375 -13.59375 L 7.765625 -13.59375 L 7.765625 -11.65625 L 9.71875 -11.65625 L 9.71875 -9.71875 L 7.765625 -9.71875 L 7.765625 -11.65625 L 1.9375 -11.65625 Z M 1.9375 -1.9375 L 7.765625 -1.9375 L 7.765625 0 L 1.9375 0 Z M 1.9375 -7.765625 L 0 -7.765625 L 0 -11.65625 L 1.9375 -11.65625 Z M 1.9375 -1.9375 L 0 -1.9375 L 0 -3.890625 L 1.9375 -3.890625 Z M 1.9375 -1.9375 "/></g></g><g transform="translate(14.616057, 19.408866)"><g><path d="M 0 -13.59375 L 9.71875 -13.59375 L 9.71875 -11.65625 L 5.828125 -11.65625 L 5.828125 0 L 3.890625 0 L 3.890625 -11.65625 L 0 -11.65625 Z M 0 -13.59375 "/></g></g><g transform="translate(28.213555, 19.408866)"><g><path d="M 3.890625 -13.59375 L 7.78125 -13.59375 L 7.78125 -9.71875 L 9.71875 -9.71875 L 9.71875 -3.890625 L 11.65625 -3.890625 L 11.65625 0 L 9.71875 0 L 9.71875 -3.890625 L 1.9375 -3.890625 L 1.9375 -9.71875 L 3.890625 -9.71875 Z M 7.78125 -5.828125 L 7.78125 -9.6875 L 3.890625 -9.6875 L 3.890625 -5.828125 Z M 0 0 L 0 -3.890625 L 1.9375 -3.890625 L 1.9375 0 Z M 0 0 "/></g></g><g transform="translate(43.745425, 19.408866)"><g><path d="M 11.65625 -11.65625 L 11.65625 -9.71875 L 9.71875 -9.71875 L 9.71875 -11.65625 L 3.890625 -11.65625 L 3.890625 -13.59375 L 9.71875 -13.59375 L 9.71875 -11.65625 Z M 3.890625 -3.875 L 3.890625 -1.9375 L 9.71875 -1.9375 L 9.71875 0 L 3.890625 0 L 3.890625 -1.9375 L 1.9375 -1.9375 L 1.9375 -3.875 Z M 1.9375 -9.71875 L 1.9375 -3.890625 L 0 -3.890625 L 0 -9.71875 Z M 9.71875 -1.9375 L 9.71875 -3.890625 L 11.65625 -3.890625 L 11.65625 -1.9375 Z M 3.890625 -9.734375 L 1.9375 -9.734375 L 1.9375 -11.65625 L 3.890625 -11.65625 Z M 3.890625 -9.734375 "/></g></g><g transform="translate(59.277295, 19.408866)"><g><path d="M 1.9375 0 L 0 0 L 0 -13.59375 L 1.9375 -13.59375 L 1.9375 -7.765625 L 3.890625 -7.765625 L 3.890625 -9.71875 L 5.828125 -9.71875 L 5.828125 -5.828125 L 7.765625 -5.828125 L 7.765625 -3.890625 L 9.71875 -3.890625 L 9.71875 0 L 7.765625 0 L 7.765625 -3.890625 L 5.828125 -3.890625 L 5.828125 -5.828125 L 1.9375 -5.828125 Z M 7.765625 -11.65625 L 7.765625 -13.59375 L 9.71875 -13.59375 L 9.71875 -11.65625 Z M 5.828125 -11.65625 L 7.765625 -11.65625 L 7.765625 -9.71875 L 5.828125 -9.71875 Z M 5.828125 -11.65625 "/></g></g></g></g></g><g clip-path="url(#8d0b01dc55)"><path fill="#ffffff" d="M 9.972656 9.890625 C 9.972656 9.5 10.074219 9.136719 10.273438 8.800781 C 10.472656 8.464844 10.742188 8.203125 11.082031 8.015625 C 11.425781 7.824219 11.789062 7.738281 12.179688 7.746094 C 12.570312 7.757812 12.929688 7.867188 13.261719 8.074219 L 19.433594 11.9375 C 19.675781 12.089844 19.878906 12.28125 20.042969 12.515625 C 20.210938 12.746094 20.324219 13 20.386719 13.277344 C 20.453125 13.554688 20.460938 13.835938 20.414062 14.117188 C 20.367188 14.398438 20.265625 14.65625 20.113281 14.898438 C 19.964844 15.140625 19.773438 15.34375 19.539062 15.507812 C 19.308594 15.675781 19.054688 15.789062 18.777344 15.851562 C 18.5 15.917969 18.21875 15.925781 17.9375 15.878906 C 17.65625 15.832031 17.394531 15.730469 17.15625 15.578125 L 10.980469 11.714844 C 10.667969 11.515625 10.421875 11.257812 10.242188 10.933594 C 10.0625 10.609375 9.972656 10.261719 9.972656 9.890625 Z M 9.972656 9.890625 " fill-opacity="1" fill-rule="nonzero"/></g><g clip-path="url(#092f5f92b2)"><path fill="#757576" d="M 9.972656 16.554688 C 9.972656 16.164062 10.074219 15.800781 10.269531 15.460938 C 10.46875 15.125 10.738281 14.863281 11.082031 14.671875 C 11.421875 14.484375 11.789062 14.394531 12.179688 14.40625 C 12.570312 14.414062 12.929688 14.523438 13.261719 14.730469 L 19.433594 18.597656 C 19.6875 18.746094 19.90625 18.933594 20.082031 19.167969 C 20.257812 19.398438 20.382812 19.65625 20.453125 19.941406 C 20.527344 20.226562 20.539062 20.511719 20.492188 20.800781 C 20.445312 21.089844 20.347656 21.359375 20.191406 21.605469 C 20.035156 21.855469 19.835938 22.0625 19.597656 22.230469 C 19.355469 22.394531 19.09375 22.507812 18.808594 22.570312 C 18.519531 22.628906 18.234375 22.628906 17.945312 22.570312 C 17.660156 22.511719 17.394531 22.402344 17.15625 22.234375 L 10.980469 18.375 C 10.667969 18.175781 10.421875 17.917969 10.242188 17.59375 C 10.0625 17.269531 9.972656 16.921875 9.972656 16.550781 Z M 9.972656 16.554688 " fill-opacity="1" fill-rule="nonzero"/></g><g clip-path="url(#ab7b5ac42d)"><path fill="#ffffff" d="M 12.070312 25.363281 C 11.792969 25.363281 11.527344 25.308594 11.269531 25.199219 C 11.011719 25.089844 10.785156 24.933594 10.589844 24.734375 C 10.390625 24.53125 10.242188 24.300781 10.132812 24.035156 C 10.027344 23.773438 9.976562 23.496094 9.976562 23.210938 C 9.976562 22.925781 10.027344 22.652344 10.132812 22.390625 C 10.242188 22.125 10.390625 21.894531 10.589844 21.691406 C 10.785156 21.488281 11.011719 21.335938 11.269531 21.226562 C 11.527344 21.117188 11.792969 21.0625 12.070312 21.0625 C 12.351562 21.0625 12.617188 21.117188 12.875 21.226562 C 13.132812 21.335938 13.359375 21.488281 13.554688 21.691406 C 13.75 21.894531 13.902344 22.125 14.011719 22.390625 C 14.117188 22.652344 14.167969 22.925781 14.167969 23.210938 C 14.167969 23.496094 14.117188 23.773438 14.011719 24.035156 C 13.902344 24.300781 13.75 24.53125 13.554688 24.734375 C 13.359375 24.933594 13.132812 25.089844 12.875 25.199219 C 12.617188 25.308594 12.351562 25.363281 12.070312 25.363281 Z M 12.070312 25.363281 " fill-opacity="1" fill-rule="nonzero"/></g></svg>