<svg xmlns="http://www.w3.org/2000/svg" xmlns:xlink="http://www.w3.org/1999/xlink" width="44" zoomAndPan="magnify" viewBox="0 0 33 32.999998" height="44" preserveAspectRatio="xMidYMid meet" version="1.0"><defs><clipPath id="9a71620f59"><path d="M 16.5 0 C 7.386719 0 0 7.386719 0 16.5 C 0 25.613281 7.386719 33 16.5 33 C 25.613281 33 33 25.613281 33 16.5 C 33 7.386719 25.613281 0 16.5 0 Z M 16.5 0 " clip-rule="nonzero"/></clipPath><clipPath id="2ad060ada9"><path d="M 0 0 L 33 0 L 33 33 L 0 33 Z M 0 0 " clip-rule="nonzero"/></clipPath><clipPath id="f05be3943d"><path d="M 16.5 0 C 7.386719 0 0 7.386719 0 16.5 C 0 25.613281 7.386719 33 16.5 33 C 25.613281 33 33 25.613281 33 16.5 C 33 7.386719 25.613281 0 16.5 0 Z M 16.5 0 " clip-rule="nonzero"/></clipPath><clipPath id="75ea9d63cf"><rect x="0" width="33" y="0" height="33"/></clipPath><clipPath id="e8aa17a7f7"><path d="M 9.710938 5.164062 L 23.210938 5.164062 L 23.210938 16 L 9.710938 16 Z M 9.710938 5.164062 " clip-rule="nonzero"/></clipPath><clipPath id="d75f6ba584"><path d="M 9.710938 13 L 23.210938 13 L 23.210938 25 L 9.710938 25 Z M 9.710938 13 " clip-rule="nonzero"/></clipPath><clipPath id="cedd12e99d"><path d="M 9.710938 22 L 16 22 L 16 27.664062 L 9.710938 27.664062 Z M 9.710938 22 " clip-rule="nonzero"/></clipPath></defs><g clip-path="url(#9a71620f59)"><g transform="matrix(1, 0, 0, 1, 0, 0.000000000000004502)"><g clip-path="url(#75ea9d63cf)"><g clip-path="url(#2ad060ada9)"><g clip-path="url(#f05be3943d)"><rect x="-7.26" width="47.52" fill="#ffffff" height="47.519997" y="-7.26" fill-opacity="1"/></g></g></g></g></g><g clip-path="url(#e8aa17a7f7)"><path fill="#000000" d="M 9.800781 8.101562 C 9.800781 7.605469 9.929688 7.140625 10.179688 6.714844 C 10.433594 6.289062 10.773438 5.953125 11.210938 5.714844 C 11.644531 5.476562 12.109375 5.363281 12.605469 5.375 C 13.097656 5.386719 13.558594 5.527344 13.976562 5.789062 L 21.820312 10.699219 C 22.128906 10.894531 22.386719 11.136719 22.597656 11.429688 C 22.804688 11.726562 22.953125 12.050781 23.03125 12.402344 C 23.113281 12.753906 23.125 13.109375 23.0625 13.464844 C 23.003906 13.824219 22.878906 14.15625 22.683594 14.460938 C 22.492188 14.769531 22.25 15.027344 21.953125 15.238281 C 21.660156 15.445312 21.335938 15.59375 20.984375 15.671875 C 20.632812 15.753906 20.277344 15.765625 19.917969 15.703125 C 19.5625 15.644531 19.230469 15.519531 18.921875 15.328125 L 11.082031 10.414062 C 10.683594 10.164062 10.367188 9.835938 10.140625 9.421875 C 9.914062 9.011719 9.800781 8.570312 9.800781 8.101562 Z M 9.800781 8.101562 " fill-opacity="1" fill-rule="nonzero"/></g><g clip-path="url(#d75f6ba584)"><path fill="#757576" d="M 9.800781 16.5625 C 9.800781 16.066406 9.925781 15.605469 10.179688 15.175781 C 10.429688 14.75 10.773438 14.414062 11.207031 14.175781 C 11.640625 13.933594 12.105469 13.820312 12.601562 13.835938 C 13.097656 13.847656 13.558594 13.984375 13.976562 14.25 L 21.820312 19.164062 C 22.144531 19.347656 22.417969 19.585938 22.644531 19.882812 C 22.867188 20.179688 23.027344 20.507812 23.117188 20.867188 C 23.207031 21.230469 23.222656 21.59375 23.164062 21.960938 C 23.105469 22.328125 22.980469 22.667969 22.78125 22.984375 C 22.585938 23.296875 22.332031 23.5625 22.027344 23.773438 C 21.722656 23.988281 21.386719 24.128906 21.023438 24.207031 C 20.660156 24.28125 20.292969 24.28125 19.929688 24.207031 C 19.566406 24.136719 19.230469 23.992188 18.921875 23.78125 L 11.082031 18.875 C 10.683594 18.628906 10.367188 18.296875 10.140625 17.886719 C 9.914062 17.472656 9.800781 17.03125 9.800781 16.5625 Z M 9.800781 16.5625 " fill-opacity="1" fill-rule="nonzero"/></g><g clip-path="url(#cedd12e99d)"><path fill="#000000" d="M 12.464844 27.757812 C 12.113281 27.757812 11.773438 27.6875 11.445312 27.550781 C 11.121094 27.410156 10.832031 27.214844 10.582031 26.957031 C 10.332031 26.699219 10.140625 26.40625 10.003906 26.070312 C 9.871094 25.734375 9.800781 25.386719 9.800781 25.023438 C 9.800781 24.660156 9.871094 24.3125 10.003906 23.980469 C 10.140625 23.644531 10.332031 23.347656 10.582031 23.09375 C 10.832031 22.835938 11.121094 22.636719 11.445312 22.5 C 11.773438 22.359375 12.113281 22.292969 12.464844 22.292969 C 12.820312 22.292969 13.160156 22.359375 13.484375 22.5 C 13.8125 22.636719 14.101562 22.835938 14.351562 23.09375 C 14.601562 23.347656 14.792969 23.644531 14.929688 23.980469 C 15.0625 24.3125 15.132812 24.660156 15.132812 25.023438 C 15.132812 25.386719 15.0625 25.734375 14.929688 26.070312 C 14.792969 26.40625 14.601562 26.699219 14.351562 26.957031 C 14.101562 27.214844 13.8125 27.410156 13.484375 27.550781 C 13.160156 27.6875 12.820312 27.757812 12.464844 27.757812 Z M 12.464844 27.757812 " fill-opacity="1" fill-rule="nonzero"/></g></svg>