<svg xmlns="http://www.w3.org/2000/svg" xmlns:xlink="http://www.w3.org/1999/xlink" width="44" zoomAndPan="magnify" viewBox="0 0 33 32.999998" height="44" preserveAspectRatio="xMidYMid meet" version="1.0"><defs><clipPath id="8cb2ca760b"><path d="M 16.5 0 C 7.386719 0 0 7.386719 0 16.5 C 0 25.613281 7.386719 33 16.5 33 C 25.613281 33 33 25.613281 33 16.5 C 33 7.386719 25.613281 0 16.5 0 Z M 16.5 0 " clip-rule="nonzero"/></clipPath><clipPath id="43569e4cf1"><path d="M 0 0 L 33 0 L 33 33 L 0 33 Z M 0 0 " clip-rule="nonzero"/></clipPath><clipPath id="d307f94148"><path d="M 16.5 0 C 7.386719 0 0 7.386719 0 16.5 C 0 25.613281 7.386719 33 16.5 33 C 25.613281 33 33 25.613281 33 16.5 C 33 7.386719 25.613281 0 16.5 0 Z M 16.5 0 " clip-rule="nonzero"/></clipPath><clipPath id="983c08948d"><rect x="0" width="33" y="0" height="33"/></clipPath><clipPath id="5bc60f0745"><path d="M 9.746094 5.105469 L 23.246094 5.105469 L 23.246094 16 L 9.746094 16 Z M 9.746094 5.105469 " clip-rule="nonzero"/></clipPath><clipPath id="2bf37b52d0"><path d="M 9.746094 13 L 23.246094 13 L 23.246094 25 L 9.746094 25 Z M 9.746094 13 " clip-rule="nonzero"/></clipPath><clipPath id="ce32cdea5d"><path d="M 9.746094 22 L 16 22 L 16 27.605469 L 9.746094 27.605469 Z M 9.746094 22 " clip-rule="nonzero"/></clipPath></defs><g clip-path="url(#8cb2ca760b)"><g transform="matrix(1, 0, 0, 1, 0, 0.000000000000004502)"><g clip-path="url(#983c08948d)"><g clip-path="url(#43569e4cf1)"><g clip-path="url(#d307f94148)"><rect x="-7.26" width="47.52" fill="#864ffe" height="47.519997" y="-7.26" fill-opacity="1"/></g></g></g></g></g><g clip-path="url(#5bc60f0745)"><path fill="#ffffff" d="M 9.765625 8.054688 C 9.765625 7.558594 9.894531 7.09375 10.144531 6.664062 C 10.398438 6.234375 10.746094 5.898438 11.179688 5.660156 C 11.617188 5.417969 12.085938 5.304688 12.582031 5.316406 C 13.082031 5.332031 13.542969 5.46875 13.964844 5.734375 L 21.847656 10.671875 C 22.15625 10.863281 22.417969 11.109375 22.628906 11.40625 C 22.839844 11.699219 22.984375 12.027344 23.066406 12.382812 C 23.148438 12.734375 23.15625 13.09375 23.097656 13.449219 C 23.035156 13.808594 22.910156 14.144531 22.71875 14.453125 C 22.523438 14.761719 22.28125 15.019531 21.984375 15.230469 C 21.6875 15.441406 21.359375 15.585938 21.007812 15.667969 C 20.652344 15.75 20.296875 15.761719 19.9375 15.699219 C 19.578125 15.640625 19.246094 15.515625 18.9375 15.320312 L 11.050781 10.382812 C 10.652344 10.132812 10.335938 9.800781 10.105469 9.386719 C 9.878906 8.972656 9.765625 8.527344 9.765625 8.054688 Z M 9.765625 8.054688 " fill-opacity="1" fill-rule="nonzero"/></g><g clip-path="url(#2bf37b52d0)"><path fill="#ffffff" d="M 9.765625 16.5625 C 9.765625 16.066406 9.890625 15.601562 10.144531 15.171875 C 10.398438 14.742188 10.742188 14.40625 11.179688 14.164062 C 11.617188 13.921875 12.082031 13.808594 12.582031 13.820312 C 13.082031 13.832031 13.542969 13.972656 13.964844 14.238281 L 21.847656 19.175781 C 22.171875 19.363281 22.449219 19.601562 22.675781 19.902344 C 22.902344 20.199219 23.058594 20.527344 23.148438 20.890625 C 23.242188 21.253906 23.257812 21.621094 23.199219 21.988281 C 23.140625 22.359375 23.011719 22.699219 22.8125 23.019531 C 22.617188 23.335938 22.363281 23.597656 22.054688 23.8125 C 21.75 24.027344 21.414062 24.171875 21.046875 24.246094 C 20.679688 24.320312 20.3125 24.324219 19.949219 24.25 C 19.582031 24.175781 19.242188 24.03125 18.9375 23.820312 L 11.050781 18.890625 C 10.652344 18.636719 10.335938 18.304688 10.105469 17.890625 C 9.878906 17.480469 9.765625 17.035156 9.765625 16.5625 Z M 9.765625 16.5625 " fill-opacity="1" fill-rule="nonzero"/></g><g clip-path="url(#ce32cdea5d)"><path fill="#ffffff" d="M 12.445312 27.816406 C 12.089844 27.816406 11.746094 27.746094 11.417969 27.609375 C 11.089844 27.46875 10.800781 27.269531 10.550781 27.011719 C 10.300781 26.753906 10.105469 26.457031 9.96875 26.121094 C 9.832031 25.785156 9.765625 25.433594 9.765625 25.070312 C 9.765625 24.703125 9.832031 24.355469 9.96875 24.019531 C 10.105469 23.679688 10.300781 23.382812 10.550781 23.125 C 10.800781 22.867188 11.089844 22.671875 11.417969 22.53125 C 11.746094 22.390625 12.089844 22.320312 12.445312 22.320312 C 12.800781 22.320312 13.140625 22.390625 13.46875 22.53125 C 13.796875 22.671875 14.085938 22.867188 14.339844 23.125 C 14.589844 23.382812 14.785156 23.679688 14.917969 24.019531 C 15.054688 24.355469 15.125 24.703125 15.125 25.070312 C 15.125 25.433594 15.054688 25.785156 14.917969 26.121094 C 14.785156 26.457031 14.589844 26.753906 14.339844 27.011719 C 14.085938 27.269531 13.796875 27.46875 13.46875 27.609375 C 13.140625 27.746094 12.800781 27.816406 12.445312 27.816406 Z M 12.445312 27.816406 " fill-opacity="1" fill-rule="nonzero"/></g></svg>