<svg xmlns="http://www.w3.org/2000/svg" xmlns:xlink="http://www.w3.org/1999/xlink" width="44" zoomAndPan="magnify" viewBox="0 0 33 32.999998" height="44" preserveAspectRatio="xMidYMid meet" version="1.0"><defs><clipPath id="96a0f7c56f"><path d="M 16.5 0 C 7.386719 0 0 7.386719 0 16.5 C 0 25.613281 7.386719 33 16.5 33 C 25.613281 33 33 25.613281 33 16.5 C 33 7.386719 25.613281 0 16.5 0 Z M 16.5 0 " clip-rule="nonzero"/></clipPath><clipPath id="dcace71e7b"><path d="M 0 0 L 33 0 L 33 33 L 0 33 Z M 0 0 " clip-rule="nonzero"/></clipPath><clipPath id="2431f88817"><path d="M 16.5 0 C 7.386719 0 0 7.386719 0 16.5 C 0 25.613281 7.386719 33 16.5 33 C 25.613281 33 33 25.613281 33 16.5 C 33 7.386719 25.613281 0 16.5 0 Z M 16.5 0 " clip-rule="nonzero"/></clipPath><clipPath id="31563ed606"><rect x="0" width="33" y="0" height="33"/></clipPath><clipPath id="f19a73fc7d"><path d="M 9.570312 5.40625 L 23 5.40625 L 23 16 L 9.570312 16 Z M 9.570312 5.40625 " clip-rule="nonzero"/></clipPath><clipPath id="f270c79e0c"><path d="M 9.570312 13 L 23.070312 13 L 23.070312 25 L 9.570312 25 Z M 9.570312 13 " clip-rule="nonzero"/></clipPath><clipPath id="a27cd4c8fd"><path d="M 9.570312 22 L 16 22 L 16 27.90625 L 9.570312 27.90625 Z M 9.570312 22 " clip-rule="nonzero"/></clipPath></defs><g clip-path="url(#96a0f7c56f)"><g transform="matrix(1, 0, 0, 1, 0, 0.000000000000004502)"><g clip-path="url(#31563ed606)"><g clip-path="url(#dcace71e7b)"><g clip-path="url(#2431f88817)"><rect x="-7.26" width="47.52" fill="#000000" height="47.519997" y="-7.26" fill-opacity="1"/></g></g></g></g></g><g clip-path="url(#f19a73fc7d)"><path fill="#ffffff" d="M 9.941406 8.277344 C 9.941406 7.792969 10.066406 7.339844 10.3125 6.921875 C 10.558594 6.503906 10.894531 6.179688 11.320312 5.941406 C 11.746094 5.707031 12.199219 5.597656 12.683594 5.609375 C 13.171875 5.621094 13.621094 5.757812 14.03125 6.015625 L 21.710938 10.824219 C 22.011719 11.011719 22.261719 11.25 22.46875 11.539062 C 22.675781 11.828125 22.816406 12.144531 22.894531 12.488281 C 22.976562 12.835938 22.984375 13.183594 22.925781 13.53125 C 22.867188 13.882812 22.746094 14.207031 22.554688 14.507812 C 22.367188 14.808594 22.128906 15.058594 21.839844 15.265625 C 21.550781 15.472656 21.234375 15.613281 20.890625 15.691406 C 20.542969 15.773438 20.199219 15.78125 19.847656 15.722656 C 19.5 15.664062 19.171875 15.542969 18.875 15.351562 L 11.195312 10.542969 C 10.804688 10.300781 10.496094 9.976562 10.273438 9.574219 C 10.050781 9.167969 9.941406 8.738281 9.941406 8.277344 Z M 9.941406 8.277344 " fill-opacity="1" fill-rule="nonzero"/></g><g clip-path="url(#f270c79e0c)"><path fill="#757576" d="M 9.941406 16.5625 C 9.941406 16.078125 10.0625 15.625 10.3125 15.207031 C 10.558594 14.789062 10.894531 14.460938 11.316406 14.226562 C 11.742188 13.992188 12.199219 13.878906 12.683594 13.890625 C 13.171875 13.90625 13.617188 14.039062 14.03125 14.296875 L 21.710938 19.109375 C 22.027344 19.289062 22.292969 19.523438 22.515625 19.8125 C 22.734375 20.105469 22.890625 20.425781 22.976562 20.777344 C 23.066406 21.132812 23.082031 21.488281 23.027344 21.847656 C 22.96875 22.207031 22.84375 22.542969 22.648438 22.851562 C 22.457031 23.160156 22.210938 23.417969 21.910156 23.625 C 21.613281 23.832031 21.285156 23.972656 20.929688 24.046875 C 20.570312 24.121094 20.214844 24.121094 19.859375 24.050781 C 19.5 23.976562 19.171875 23.839844 18.875 23.632812 L 11.195312 18.828125 C 10.804688 18.585938 10.496094 18.261719 10.273438 17.859375 C 10.050781 17.453125 9.941406 17.023438 9.941406 16.5625 Z M 9.941406 16.5625 " fill-opacity="1" fill-rule="nonzero"/></g><g clip-path="url(#a27cd4c8fd)"><path fill="#ffffff" d="M 12.550781 27.523438 C 12.207031 27.523438 11.871094 27.457031 11.550781 27.320312 C 11.234375 27.183594 10.949219 26.992188 10.707031 26.738281 C 10.460938 26.488281 10.273438 26.199219 10.140625 25.871094 C 10.007812 25.542969 9.941406 25.203125 9.941406 24.847656 C 9.941406 24.492188 10.007812 24.152344 10.140625 23.824219 C 10.273438 23.496094 10.460938 23.207031 10.707031 22.957031 C 10.949219 22.703125 11.234375 22.511719 11.550781 22.375 C 11.871094 22.238281 12.207031 22.171875 12.550781 22.171875 C 12.898438 22.171875 13.230469 22.238281 13.550781 22.375 C 13.871094 22.511719 14.152344 22.703125 14.394531 22.957031 C 14.640625 23.207031 14.828125 23.496094 14.960938 23.824219 C 15.09375 24.152344 15.160156 24.492188 15.160156 24.847656 C 15.160156 25.203125 15.09375 25.542969 14.960938 25.871094 C 14.828125 26.199219 14.640625 26.488281 14.394531 26.738281 C 14.152344 26.992188 13.871094 27.183594 13.550781 27.320312 C 13.230469 27.457031 12.898438 27.523438 12.550781 27.523438 Z M 12.550781 27.523438 " fill-opacity="1" fill-rule="nonzero"/></g></svg>